<svg xmlns="http://www.w3.org/2000/svg" xmlns:xlink="http://www.w3.org/1999/xlink" version="1.1" x="0px" y="0px" viewBox="0 0 100 96" enable-background="new 0 0 100 96" xml:space="preserve"><path d="M37,48h28V37H37V48z M60.283,42.015c0.408,0.408,0.408,1.067,0,1.476l-3.056,3.056c-0.199,0.199-0.471,0.303-0.743,0.303  c-0.262,0-0.534-0.105-0.733-0.303c-0.408-0.408-0.408-1.078,0-1.486l3.045-3.045C59.205,41.607,59.874,41.607,60.283,42.015z   M59.226,38.823c0.398,0.419,0.387,1.078-0.031,1.476l-6.405,6.174c-0.199,0.199-0.46,0.293-0.722,0.293  c-0.272,0-0.555-0.105-0.754-0.324c-0.408-0.408-0.387-1.078,0.021-1.476l6.415-6.174C58.158,38.394,58.828,38.405,59.226,38.823z   M50.414,41.858l3.045-3.045c0.408-0.408,1.078-0.408,1.486,0c0.408,0.408,0.408,1.067,0,1.476l-3.056,3.056  c-0.209,0.199-0.471,0.303-0.743,0.303c-0.262,0-0.534-0.105-0.733-0.303C49.995,42.936,49.995,42.266,50.414,41.858z M72,53.474V23  H30v30.474C44,57.326,58,57.326,72,53.474z M35,35h32v15H35V35z M76.859,76.122C73.584,84.473,65.662,90,56.693,90H45.799  c-8.937,0-16.849-5.516-20.135-13.826l-2.731-6.976c-0.052-0.136-0.105-0.322-0.157-0.458c0.45,2.512,1.151,4.914,2.103,7.311  l2.731,6.795C30.583,90.35,37.72,95,45.799,95h10.894c8.11,0,15.258-4.678,18.22-12.223l2.794-6.959  c0.931-2.355,1.612-4.783,2.062-7.252c-0.042,0.094-0.073,0.246-0.105,0.341L76.859,76.122z M87.22,43.52l-3.228-0.278  C83.622,43.207,83,43.313,83,43.87V46h-1.655l0.949-9.207c0.083-0.801-0.353-1.643-0.927-2.209L80,33.339v-6.834  C80,14.678,70.625,5,58.797,5h-15.53C31.629,5,22,14.858,22,26.506v6.614l-1.079,0.913c-0.583,0.573-0.944,1.476-0.85,2.289  L21.109,46H20v-2.13c0-0.37-0.499-0.645-0.868-0.612l-3.158,0.262C15.608,43.554,15,43.882,15,44.25v5.614  c0,0.434,0.538,0.797,0.969,0.84l3.133,0.285C19.43,51.023,20,50.78,20,50.451V48h1.382l0.703,6.133  c0.042,0.115,0.073,0.293,0.073,0.419c0,4.741,0.869,9.157,2.721,13.835l2.731,7.07C30.583,82.96,37.72,88,45.799,88h10.894  c8.1,0,15.258-5.05,18.209-12.595l2.805-7.24c1.622-4.155,2.449-7.712,2.669-11.427l-0.01-1.58L81.1,48H83v2.362  c0,0.372,0.519,0.663,0.889,0.627l3.234-0.285C87.446,50.673,88,50.401,88,50.077v-5.93C88,43.823,87.544,43.551,87.22,43.52z   M35.229,80.192c-0.084,0.021-0.167,0.031-0.251,0.031c-0.471,0-0.9-0.324-1.015-0.795l-4.667-19.224  c-0.136-0.565,0.209-1.13,0.764-1.266c0.565-0.136,1.13,0.209,1.266,0.774l4.678,19.214C36.14,79.491,35.794,80.056,35.229,80.192z   M73.374,60.203l-4.678,19.224c-0.115,0.471-0.544,0.795-1.015,0.795c-0.084,0-0.167-0.01-0.251-0.031  c-0.555-0.136-0.9-0.701-0.764-1.266l4.667-19.214c0.136-0.565,0.701-0.91,1.266-0.774C73.165,59.073,73.51,59.638,73.374,60.203z   M74,55.044l-0.658,0.22c-7.273,2.124-14.666,3.192-22.149,3.192s-15.066-1.067-22.349-3.192L28,55.044V21h46V55.044z" fill="#164F86"/></svg>